<svg version="1.0" xmlns="http://www.w3.org/2000/svg" width="682.667" height="682.667" viewBox="0 0 512 512"><path d="M76.3 52.5C66.1 55.6 58.7 62.1 54.1 72l-2.6 5.5v357l2.6 5.6c3.7 7.9 9 13.3 16.7 17.1l6.7 3.3h357l6.6-3.2c7.7-3.8 13-9.2 16.8-17.2l2.6-5.6v-357l-3.3-6.7c-3.8-7.7-9.2-13-17.1-16.7l-5.6-2.6-177-.2c-142.9-.1-177.8.1-181.2 1.2zm350.3 203.4-.1 170.6h-341L85.3 258c-.1-92.7 0-169.4.2-170.6l.4-2h340.8l-.1 170.5z"/><path d="M182.5 136.8c-16.9 1.7-33 13.2-40.5 28.7-2.5 5.1-4.3 10.3-4.7 14.1-.4 3.2-.7 23.4-.7 44.9 0 37 .2 39.4 2.2 46 6.6 21.6 26.4 36.5 48.7 36.5 26.1 0 48-19.5 51-45.4l.7-5.6h-34.1l-1.1 4.2c-1.4 5-5.2 9.5-9.7 11.4-9.2 4-20.5-1.5-22.9-11.1-.4-1.6-.7-19.6-.7-40 0-40 0-40.1 5.5-45.2 8.1-7.5 22-4.9 26.7 5.2 1.1 2.4 2.1 5.1 2.1 5.9 0 1.1 3.2 1.3 17 1.3l17-.1v-2.5c0-1.4-.7-5.5-1.5-9-4-16.8-16.5-30.5-33.7-37-4.7-1.8-15.4-2.9-21.3-2.3zM256.5 136.8c-.2.2-.2.9 0 1.5.3.7.7 2.3.9 3.7.3 1.4 1.6 7 3.1 12.4 1.4 5.5 2.7 10.9 2.9 12 .3 1.2 1.6 6.4 3 11.6 1.4 5.3 2.7 10.7 3 12 .2 1.4.7 3.2 1 4 .3.8.7 2.6 1 4 .2 1.4 5.6 23.2 12 48.5 12.7 50.3 12.1 47.8 13.7 55.2l1.2 5.3h17.3c15.6 0 17.3-.2 17.8-1.8.2-.9 1.4-6 2.6-11.2 1.2-5.2 2.6-10.6 3-12 2.3-6.3 36-144.3 35.5-144.8-.3-.4-8.2-.7-17.4-.7h-16.8l-3.2 13.5c-1.8 7.4-3.7 14.6-4.2 16-.4 1.4-4.2 16.3-8.3 33.1-4.2 16.8-7.9 31.6-8.4 32.9-.8 2.2-1 2.1-1.7-1.5-.5-2.2-.9-4.5-1-5-.2-.6-2.2-8.5-4.5-17.5-2.3-9.1-4.3-17.2-4.5-18l-4-16-4-16c-2.5-11-4.8-19.7-5.6-20.5-.8-.8-33.6-1.5-34.4-.7zM136.7 341.9c-.3.6-.1 32 .2 33.1.2.8 237.5.6 238.1-.2.3-.3.5-8 .5-17v-16.3l-119.3-.1c-65.6 0-119.4.2-119.5.5z"/></svg>