<?xml version="1.0" standalone="no"?>
<!DOCTYPE svg PUBLIC "-//W3C//DTD SVG 20010904//EN"
 "http://www.w3.org/TR/2001/REC-SVG-20010904/DTD/svg10.dtd">
<svg version="1.0" xmlns="http://www.w3.org/2000/svg"
 width="512.000000pt" height="512.000000pt" viewBox="0 0 512.000000 512.000000"
 preserveAspectRatio="xMidYMid meet">
<metadata>
Created by potrace 1.14, written by Peter Selinger 2001-2017
</metadata>
<g transform="translate(0.000000,512.000000) scale(0.100000,-0.100000)"
fill="#000000" stroke="none">
<path d="M763 4595 c-102 -31 -176 -96 -222 -195 l-26 -55 0 -1785 0 -1785 26
-56 c37 -79 90 -133 167 -171 l67 -33 1785 0 1785 0 66 32 c77 38 130 92 168
172 l26 56 0 1785 0 1785 -33 67 c-38 77 -92 130 -171 167 l-56 26 -1770 2
c-1429 1 -1778 -1 -1812 -12z m3503 -2034 l-1 -1706 -1705 0 -1705 0 -2 1685
c-1 927 0 1694 2 1706 l4 20 1704 0 1704 0 -1 -1705z"/>
<path d="M1825 3752 c-169 -17 -330 -132 -405 -287 -25 -51 -43 -103 -47 -141
-4 -32 -7 -234 -7 -449 0 -370 2 -394 22 -460 66 -216 264 -365 487 -365 261
0 480 195 510 454 l7 56 -171 0 -170 0 -11 -42 c-14 -50 -52 -95 -97 -114 -92
-40 -205 15 -229 111 -4 16 -7 196 -7 400 0 400 0 401 55 452 81 75 220 49
267 -52 11 -24 21 -51 21 -59 0 -11 32 -13 170 -13 l170 1 0 25 c0 14 -7 55
-15 90 -40 168 -165 305 -337 370 -47 18 -154 29 -213 23z"/>
<path d="M2565 3752 c-2 -2 -2 -9 0 -15 3 -7 7 -23 9 -37 3 -14 16 -70 31
-124 14 -55 27 -109 29 -120 3 -12 16 -64 30 -116 14 -53 27 -107 30 -120 2
-14 7 -32 10 -40 3 -8 7 -26 10 -40 2 -14 56 -232 120 -485 127 -503 121 -478
137 -552 l12 -53 173 0 c156 0 173 2 178 18 2 9 14 60 26 112 12 52 26 106 30
120 23 63 360 1443 355 1448 -3 4 -82 7 -174 7 l-168 0 -32 -135 c-18 -74 -37
-146 -42 -160 -4 -14 -42 -163 -83 -331 -42 -168 -79 -316 -84 -329 -8 -22
-10 -21 -17 15 -5 22 -9 45 -10 50 -2 6 -22 85 -45 175 -23 91 -43 172 -45
180 -2 8 -20 80 -40 160 -20 80 -38 152 -40 160 -25 110 -48 197 -56 205 -8 8
-336 15 -344 7z"/>
<path d="M1367 1701 c-3 -6 -1 -320 2 -331 2 -8 2375 -6 2381 2 3 3 5 80 5
170 l0 163 -1193 1 c-656 0 -1194 -2 -1195 -5z"/>
</g>
</svg>
